<svg width="320" height="81" viewBox="0 0 320 81" fill="none" xmlns="http://www.w3.org/2000/svg">
<path d="M113.1 23.1999C114.833 23.1999 116.6 23.1999 118.4 23.1999C120.233 23.1999 122.033 23.2333 123.8 23.2999C125.567 23.3666 127.233 23.4666 128.8 23.5999L128.5 28.2499H115C114.067 28.2499 113.367 28.4833 112.9 28.9499C112.467 29.4166 112.25 30.1499 112.25 31.1499V49.9499C112.25 50.9499 112.467 51.6833 112.9 52.1499C113.367 52.6166 114.067 52.8499 115 52.8499H128.5L128.8 57.4999C127.233 57.6333 125.567 57.7333 123.8 57.7999C122.033 57.8333 120.233 57.8499 118.4 57.8499C116.6 57.8833 114.833 57.8999 113.1 57.8999C110.967 57.8999 109.25 57.3166 107.95 56.1499C106.683 54.9499 106.033 53.3499 106 51.3499V29.7499C106.033 27.7499 106.683 26.1666 107.95 24.9999C109.25 23.7999 110.967 23.1999 113.1 23.1999ZM106.9 37.4499H126.6V42.0499H106.9V37.4499Z" fill="#fff"/>
<path d="M140.466 22.7999L140.416 50.3999C140.416 51.3333 140.682 52.0499 141.216 52.5499C141.749 53.0166 142.516 53.2499 143.516 53.2499H145.666L146.366 57.4999C145.999 57.6666 145.482 57.8166 144.816 57.9499C144.182 58.0833 143.516 58.1666 142.816 58.1999C142.149 58.2666 141.566 58.2999 141.066 58.2999C139.032 58.2999 137.416 57.7499 136.216 56.6499C135.016 55.5499 134.416 53.9666 134.416 51.8999V22.7999H140.466Z" fill="#fff"/>
<path d="M161.087 32.6499C165.054 32.6499 167.904 33.3499 169.637 34.7499C171.37 36.1166 172.254 38.1499 172.287 40.8499C172.32 43.0833 171.787 44.7833 170.687 45.9499C169.62 47.0833 167.837 47.6499 165.337 47.6499H151.337V43.8999H163.687C164.82 43.8999 165.537 43.5999 165.837 42.9999C166.17 42.3999 166.337 41.6666 166.337 40.7999C166.304 39.4333 165.904 38.4833 165.137 37.9499C164.404 37.4166 163.137 37.1499 161.337 37.1499C159.77 37.1499 158.554 37.3666 157.687 37.7999C156.82 38.2333 156.204 39.0166 155.837 40.1499C155.504 41.2833 155.337 42.9166 155.337 45.0499C155.337 47.3166 155.554 49.0666 155.987 50.2999C156.42 51.5333 157.137 52.3833 158.137 52.8499C159.137 53.2833 160.47 53.4999 162.137 53.4999C163.37 53.4999 164.787 53.4499 166.387 53.3499C168.02 53.2499 169.587 53.1166 171.087 52.9499L171.687 56.7999C170.787 57.1666 169.754 57.4666 168.587 57.6999C167.42 57.9333 166.204 58.0999 164.937 58.1999C163.704 58.3333 162.537 58.3999 161.437 58.3999C158.437 58.3999 156.02 57.9666 154.187 57.0999C152.387 56.1999 151.07 54.7999 150.237 52.8999C149.437 50.9999 149.037 48.5499 149.037 45.5499C149.037 42.3166 149.437 39.7666 150.237 37.8999C151.07 35.9999 152.37 34.6499 154.137 33.8499C155.937 33.0499 158.254 32.6499 161.087 32.6499Z" fill="#fff"/>
<path d="M208.325 32.6499C210.492 32.6499 212.142 33.2333 213.275 34.3999C214.442 35.5333 215.025 37.1999 215.025 39.3999V57.7999H209.025V41.2499C208.992 40.0166 208.742 39.1333 208.275 38.5999C207.808 38.0333 206.992 37.7499 205.825 37.7499C205.125 37.7499 204.442 37.8666 203.775 38.0999C203.142 38.2999 202.425 38.6333 201.625 39.0999C200.825 39.5666 199.858 40.1833 198.725 40.9499L198.375 37.2999C200.075 35.7333 201.708 34.5666 203.275 33.7999C204.875 33.0333 206.558 32.6499 208.325 32.6499ZM182.575 33.2499L183.175 38.0499L183.775 38.7499V57.7999H177.725V33.2499H182.575ZM192.675 32.6499C194.808 32.6499 196.442 33.2166 197.575 34.3499C198.708 35.4833 199.292 37.1666 199.325 39.3999V57.7999H193.475V41.2499C193.475 39.9499 193.208 39.0499 192.675 38.5499C192.142 38.0166 191.342 37.7499 190.275 37.7499C189.608 37.7499 188.942 37.8499 188.275 38.0499C187.608 38.2499 186.875 38.5833 186.075 39.0499C185.275 39.5166 184.275 40.1499 183.075 40.9499L182.725 37.2999C184.392 35.7333 186.025 34.5666 187.625 33.7999C189.225 33.0333 190.908 32.6499 192.675 32.6499Z" fill="#fff"/>
<path d="M232.62 32.6499C236.587 32.6499 239.437 33.3499 241.17 34.7499C242.904 36.1166 243.787 38.1499 243.82 40.8499C243.854 43.0833 243.32 44.7833 242.22 45.9499C241.154 47.0833 239.37 47.6499 236.87 47.6499H222.87V43.8999H235.22C236.354 43.8999 237.07 43.5999 237.37 42.9999C237.704 42.3999 237.87 41.6666 237.87 40.7999C237.837 39.4333 237.437 38.4833 236.67 37.9499C235.937 37.4166 234.67 37.1499 232.87 37.1499C231.304 37.1499 230.087 37.3666 229.22 37.7999C228.354 38.2333 227.737 39.0166 227.37 40.1499C227.037 41.2833 226.87 42.9166 226.87 45.0499C226.87 47.3166 227.087 49.0666 227.52 50.2999C227.954 51.5333 228.67 52.3833 229.67 52.8499C230.67 53.2833 232.004 53.4999 233.67 53.4999C234.904 53.4999 236.32 53.4499 237.92 53.3499C239.554 53.2499 241.12 53.1166 242.62 52.9499L243.22 56.7999C242.32 57.1666 241.287 57.4666 240.12 57.6999C238.954 57.9333 237.737 58.0999 236.47 58.1999C235.237 58.3333 234.07 58.3999 232.97 58.3999C229.97 58.3999 227.554 57.9666 225.72 57.0999C223.92 56.1999 222.604 54.7999 221.77 52.8999C220.97 50.9999 220.57 48.5499 220.57 45.5499C220.57 42.3166 220.97 39.7666 221.77 37.8999C222.604 35.9999 223.904 34.6499 225.67 33.8499C227.47 33.0499 229.787 32.6499 232.62 32.6499Z" fill="#fff"/>
<path d="M265.408 32.6499C269.975 32.6499 272.258 34.8999 272.258 39.3999V57.7999H266.208V41.2499C266.208 39.9166 265.975 38.9999 265.508 38.4999C265.042 37.9999 264.258 37.7499 263.158 37.7499C261.925 37.7499 260.658 38.0333 259.358 38.5999C258.058 39.1333 256.492 39.9166 254.658 40.9499L254.408 37.2999C256.242 35.7999 258.075 34.6499 259.908 33.8499C261.775 33.0499 263.608 32.6499 265.408 32.6499ZM254.208 33.2499L254.808 38.0499L255.308 38.7499V57.7999H249.258V33.2499H254.208Z" fill="#fff"/>
<path d="M286.997 26.2499V50.3999C286.997 51.3999 287.214 52.1333 287.647 52.5999C288.114 53.0333 288.897 53.2499 289.997 53.2499H293.397L294.047 57.4999C293.48 57.6666 292.797 57.8166 291.997 57.9499C291.197 58.0833 290.414 58.1666 289.647 58.1999C288.88 58.2666 288.23 58.2999 287.697 58.2999C285.564 58.2999 283.897 57.7333 282.697 56.5999C281.53 55.4333 280.947 53.7666 280.947 51.5999V26.2499H286.997ZM294.297 33.2499V37.4499H276.597V33.4999L281.397 33.2499H294.297Z" fill="#fff"/>
<path d="M307.62 32.6499C308.753 32.6499 309.97 32.6833 311.27 32.7499C312.603 32.8166 313.903 32.9166 315.17 33.0499C316.437 33.1499 317.57 33.2999 318.57 33.4999L318.17 37.4499C316.57 37.4166 314.97 37.3833 313.37 37.3499C311.803 37.2833 310.253 37.2499 308.72 37.2499C307.353 37.2499 306.27 37.2833 305.47 37.3499C304.703 37.4166 304.153 37.6166 303.82 37.9499C303.52 38.2833 303.37 38.8499 303.37 39.6499C303.37 40.6166 303.637 41.2666 304.17 41.5999C304.703 41.8999 305.57 42.1999 306.77 42.4999L313.47 44.0499C315.503 44.5499 316.987 45.3166 317.92 46.3499C318.887 47.3499 319.37 48.8999 319.37 50.9999C319.37 53.0333 318.987 54.5833 318.22 55.6499C317.487 56.6833 316.303 57.3999 314.67 57.7999C313.07 58.1666 311.02 58.3499 308.52 58.3499C307.553 58.3499 306.12 58.2999 304.22 58.1999C302.32 58.1333 300.237 57.9166 297.97 57.5499L298.37 53.5999C299.037 53.5999 299.82 53.6166 300.72 53.6499C301.653 53.6833 302.637 53.6999 303.67 53.6999C304.737 53.6999 305.82 53.6999 306.92 53.6999C308.687 53.6999 310.037 53.6499 310.97 53.5499C311.937 53.4166 312.603 53.1666 312.97 52.7999C313.337 52.3999 313.52 51.8333 313.52 51.0999C313.52 50.1666 313.203 49.5499 312.57 49.2499C311.97 48.9166 311.07 48.5999 309.87 48.2999L303.32 46.6999C301.82 46.2999 300.653 45.7999 299.82 45.1999C298.987 44.5666 298.387 43.7999 298.02 42.8999C297.653 41.9666 297.47 40.8333 297.47 39.4999C297.47 37.6999 297.803 36.2999 298.47 35.2999C299.17 34.2999 300.253 33.5999 301.72 33.1999C303.22 32.7999 305.187 32.6166 307.62 32.6499Z" fill="#fff"/>
</svg>
