<svg width="152" height="150" viewBox="0 0 152 150" fill="none" xmlns="http://www.w3.org/2000/svg">
<path fill-rule="evenodd" clip-rule="evenodd" d="M24.8973 10.0999C24.9073 10.0999 24.9164 10.0963 24.9234 10.089C27.9922 6.88547 38.0301 0.5 53.7315 0.5C69.4507 0.5 83.7144 10.0999 88.8814 14.8998L94.1056 20.1206C94.9582 20.9727 94.9582 22.3541 94.1056 23.2061L89.7702 27.5387C88.9176 28.3908 87.5352 28.3908 86.6826 27.5387L81.4584 22.3179C77.8197 18.8998 69.2324 12.0635 53.7315 12.0635C50.8388 12.0635 48.2395 12.4055 46.3036 12.7658C44.6952 13.0651 44.1951 14.9695 45.352 16.1257L49.1843 19.9554C50.0369 20.8075 50.0369 22.1889 49.1843 23.041L45.0148 27.2077C44.1622 28.0597 42.7799 28.0597 41.9273 27.2077L24.8712 10.1627C24.848 10.1395 24.8644 10.0999 24.8973 10.0999ZM46.253 31.5306C46.2513 31.5288 46.2513 31.526 46.253 31.5242L53.5036 24.2784C53.5054 24.2766 53.5083 24.2766 53.51 24.2784C53.5118 24.2801 53.5146 24.2801 53.5164 24.2783L60.5193 17.2801C61.0504 16.7493 61.8168 16.5252 62.5432 16.7163C64.6041 17.2582 67.5523 18.187 69.8717 19.3007C71.0778 19.8798 71.2173 21.4252 70.2711 22.3707L44.1409 48.4839C43.2883 49.336 41.9059 49.336 41.0533 48.4839L36.7179 44.1514C35.8653 43.2993 35.8653 41.9179 36.7179 41.0658L46.253 31.537C46.2548 31.5352 46.2548 31.5323 46.253 31.5306ZM57.8519 40.0363C56.9993 40.8884 56.9993 42.2698 57.8519 43.1218L74.4566 59.7157C75.3092 60.5677 76.6915 60.5677 77.5441 59.7157L127.129 10.1632C127.152 10.1398 127.136 10.0999 127.103 10.0999C127.093 10.0999 127.084 10.0965 127.077 10.0898C121.595 4.75685 105.814 -3.56859 84.5122 2.98561C82.7891 3.51579 82.553 5.80302 84.0514 6.80512C86.3204 8.32261 88.9459 10.1744 90.9118 11.8074C91.429 12.237 92.1042 12.4251 92.7699 12.3293C95.9903 11.8656 101.501 11.5583 106.103 12.7173C107.571 13.087 107.907 14.8684 106.836 15.9382L77.5441 45.2112C76.6915 46.0633 75.3092 46.0633 74.4566 45.2112L65.1089 35.8696C64.2563 35.0176 62.8739 35.0176 62.0213 35.8696L57.8519 40.0363Z" fill="#fff"/>
<path fill-rule="evenodd" clip-rule="evenodd" d="M141.794 24.7333C141.794 24.7433 141.797 24.7524 141.805 24.7593C145.021 27.8162 151.431 37.8149 151.431 53.455C151.431 69.1128 141.794 83.3208 136.975 88.4676L131.734 93.6714C130.878 94.5207 129.491 94.5207 128.636 93.6714L124.286 89.3529C123.431 88.5037 123.431 87.1267 124.286 86.2775L129.528 81.0736C132.959 77.4491 139.822 68.8953 139.822 53.455C139.822 50.5736 139.479 47.9844 139.117 46.056C138.817 44.4539 136.905 43.9558 135.744 45.1082L131.899 48.9255C131.044 49.7748 129.657 49.7748 128.802 48.9255L124.619 44.7723C123.763 43.9231 123.763 42.5461 124.619 41.6968L141.731 24.7074C141.754 24.6842 141.794 24.7006 141.794 24.7333ZM120.279 46.0057C120.281 46.004 120.284 46.004 120.285 46.0057L127.56 53.228C127.561 53.2297 127.561 53.2326 127.56 53.2343C127.558 53.2361 127.558 53.2389 127.56 53.2407L134.585 60.2162C135.118 60.7453 135.343 61.5087 135.151 62.2322C134.607 64.2851 133.675 67.2218 132.557 69.5322C131.975 70.7336 130.424 70.8725 129.475 69.93L103.259 43.9018C102.404 43.0525 102.404 41.6756 103.259 40.8263L107.609 36.5078C108.464 35.6585 109.851 35.6585 110.706 36.5078L120.273 46.0057C120.274 46.0075 120.277 46.0075 120.279 46.0057ZM111.74 57.5593C110.884 56.71 109.498 56.71 108.642 57.5593L91.9834 74.0991C91.128 74.9484 91.128 76.3254 91.9834 77.1746L141.73 126.566C141.754 126.589 141.794 126.573 141.794 126.54C141.794 126.53 141.797 126.521 141.804 126.514C147.158 121.053 155.516 105.334 148.936 84.1155C148.404 82.3991 146.107 82.164 145.101 83.6565C143.578 85.9166 141.719 88.5319 140.079 90.4901C139.648 91.0053 139.459 91.6779 139.556 92.341C140.021 95.5488 140.329 101.038 139.166 105.622C138.795 107.084 137.006 107.419 135.932 106.352L106.545 77.1746C105.689 76.3253 105.689 74.9484 106.545 74.0991L115.923 64.7879C116.778 63.9386 116.778 62.5617 115.923 61.7124L111.74 57.5593Z" fill="#fff"/>
<path fill-rule="evenodd" clip-rule="evenodd" d="M127.103 139.9C127.093 139.9 127.084 139.904 127.077 139.911C124.008 143.115 113.97 149.5 98.2685 149.5C82.5493 149.5 68.2856 139.9 63.1186 135.1L57.8944 129.879C57.0418 129.027 57.0418 127.646 57.8944 126.794L62.2298 122.461C63.0824 121.609 64.4648 121.609 65.3174 122.461L70.5416 127.682C74.1803 131.1 82.7676 137.936 98.2685 137.936C101.161 137.936 103.761 137.595 105.696 137.234C107.305 136.935 107.805 135.03 106.648 133.874L102.816 130.045C101.963 129.193 101.963 127.811 102.816 126.959L106.985 122.792C107.838 121.94 109.22 121.94 110.073 122.792L127.129 139.837C127.152 139.86 127.136 139.9 127.103 139.9ZM105.747 118.469C105.749 118.471 105.749 118.474 105.747 118.476L98.4964 125.722C98.4946 125.723 98.4917 125.723 98.49 125.722C98.4882 125.72 98.4854 125.72 98.4836 125.722L91.4807 132.72C90.9496 133.251 90.1832 133.475 89.4568 133.284C87.3959 132.742 84.4477 131.813 82.1283 130.699C80.9222 130.12 80.7827 128.575 81.7288 127.629L107.859 101.516C108.712 100.664 110.094 100.664 110.947 101.516L115.282 105.849C116.135 106.701 116.135 108.082 115.282 108.934L105.747 118.463C105.745 118.465 105.745 118.468 105.747 118.469ZM94.1481 109.964C95.0007 109.112 95.0007 107.73 94.1481 106.878L77.5434 90.2843C76.6908 89.4323 75.3085 89.4323 74.4559 90.2843L24.8709 139.837C24.8476 139.86 24.8641 139.9 24.8972 139.9C24.9068 139.9 24.9157 139.903 24.9226 139.91C30.405 145.243 46.1863 153.569 67.4878 147.014C69.2109 146.484 69.447 144.197 67.9486 143.195C65.6796 141.677 63.0541 139.826 61.0882 138.193C60.571 137.763 59.8958 137.575 59.2301 137.671C56.0096 138.134 50.4994 138.442 45.8974 137.283C44.4294 136.913 44.0932 135.132 45.1637 134.062L74.4559 104.789C75.3085 103.937 76.6908 103.937 77.5434 104.789L86.8911 114.13C87.7437 114.982 89.1261 114.982 89.9787 114.13L94.1481 109.964Z" fill="#fff"/>
<path fill-rule="evenodd" clip-rule="evenodd" d="M10.2064 126.54C10.2064 126.53 10.2028 126.521 10.1955 126.514C6.97934 123.457 0.568847 113.459 0.568846 97.8187C0.568846 82.1609 10.2064 67.9528 15.0251 62.8061L20.2664 57.6023C21.1218 56.753 22.5086 56.753 23.364 57.6023L27.7135 61.9207C28.5689 62.77 28.5689 64.147 27.7135 64.9962L22.4723 70.2C19.0408 73.8245 12.1777 82.3783 12.1777 97.8187C12.1777 100.7 12.521 103.289 12.8827 105.218C13.1832 106.82 15.0951 107.318 16.2557 106.166L20.1005 102.348C20.9559 101.499 22.3428 101.499 23.1982 102.348L27.3812 106.501C28.2366 107.351 28.2366 108.728 27.3812 109.577L10.2694 126.566C10.2462 126.589 10.2064 126.573 10.2064 126.54ZM31.721 105.268C31.7193 105.27 31.7164 105.27 31.7146 105.268L24.4404 98.0457C24.4386 98.0439 24.4386 98.0411 24.4404 98.0393C24.4422 98.0376 24.4422 98.0347 24.4404 98.033L17.4147 91.0574C16.8818 90.5284 16.6569 89.765 16.8487 89.0414C17.3928 86.9885 18.3252 84.0519 19.4432 81.7415C20.0246 80.5401 21.5761 80.4012 22.5253 81.3436L48.7409 107.372C49.5962 108.221 49.5962 109.598 48.7409 110.447L44.3913 114.766C43.5359 115.615 42.1491 115.615 41.2937 114.766L31.7275 105.268C31.7257 105.266 31.7228 105.266 31.721 105.268ZM40.2601 93.7144C41.1155 94.5637 42.5024 94.5637 43.3578 93.7144L60.0166 77.1745C60.872 76.3253 60.872 74.9483 60.0166 74.099L10.2699 24.7077C10.2464 24.6844 10.2064 24.7009 10.2064 24.7338C10.2064 24.7435 10.203 24.7523 10.1962 24.7592C4.84238 30.2202 -3.5157 45.9399 3.0642 67.1582C3.59645 68.8746 5.89265 69.1097 6.89868 67.6172C8.42212 65.3571 10.2812 62.7418 11.9206 60.7836C12.3519 60.2684 12.5407 59.5958 12.4445 58.9327C11.979 55.7249 11.6705 50.2361 12.8341 45.6521C13.2052 44.1898 14.9936 43.8549 16.0676 44.9212L45.4553 74.0991C46.3107 74.9483 46.3107 76.3253 45.4553 77.1745L36.0771 86.4858C35.2217 87.335 35.2217 88.712 36.0771 89.5613L40.2601 93.7144Z" fill="#fff"/>
</svg>
